# xmcd
#
# Track frame offsets:
#	150
#	15750
#	33450
#	51450
#	70428
#	93528
#	111453
#	130355
#	152330
#	172505
#	187508
#
# Disc length: 2705 seconds
#
# Revision: 4
# Processed by: cddbd v1.5.2PL0 Copyright (c) Steve Scherf et al.
# Submitted via: EasyCDDAExtractor 15.3.0.1
#
DISCID=820a8f0b
DTITLE=Cristian - El Camino Del Alma
DYEAR=1994
DGENRE=Latin
TTITLE0=Azul Gris
TTITLE1=Con Tu Amor
TTITLE2=Estas Mintiendo
TTITLE3=Mañana
TTITLE4=Piel Y Seda
TTITLE5=Con Esa Morena
TTITLE6=Yo Sigo Aqui
TTITLE7=Tu Me Llenas
TTITLE8=Mi Querido Amor
TTITLE9=No Te Vayas Amor
TTITLE10=Azul Gris (Instrumental)
EXTD=YEAR: 1994
EXTT0=
EXTT1=
EXTT2=
EXTT3=
EXTT4=
EXTT5=
EXTT6=
EXTT7=
EXTT8=
EXTT9=
EXTT10=
PLAYORDER=
